<svg width="21" height="21" viewBox="0 0 21 21" fill="none" xmlns="http://www.w3.org/2000/svg">
<path fill-rule="evenodd" clip-rule="evenodd" d="M1.82581 10.2793C1.82581 5.62011 5.61988 1.82959 10.2834 1.82959C14.9469 1.82959 18.741 5.62011 18.741 10.2793C18.741 14.9384 14.9469 18.7289 10.2834 18.7289C5.61988 18.7289 1.82581 14.9384 1.82581 10.2793ZM10.2834 17.039C6.55275 17.039 3.51732 14.0064 3.51732 10.2793C3.51732 6.55211 6.55275 3.51952 10.2834 3.51952C14.014 3.51952 17.0495 6.55211 17.0495 10.2793C17.0495 14.0064 14.014 17.039 10.2834 17.039ZM13.6664 9.43429H11.1292V6.89939C11.1292 6.43212 10.7502 6.05442 10.2834 6.05442C9.81653 6.05442 9.43763 6.43212 9.43763 6.89939V10.2793C9.43763 10.7465 9.81653 11.1242 10.2834 11.1242H13.6664C14.1341 11.1242 14.5122 10.7465 14.5122 10.2793C14.5122 9.81199 14.1341 9.43429 13.6664 9.43429Z" fill="white"/>
<mask id="mask0" mask-type="alpha" maskUnits="userSpaceOnUse" x="1" y="1" width="18" height="18">
<path fill-rule="evenodd" clip-rule="evenodd" d="M1.82581 10.2793C1.82581 5.62011 5.61988 1.82959 10.2834 1.82959C14.9469 1.82959 18.741 5.62011 18.741 10.2793C18.741 14.9384 14.9469 18.7289 10.2834 18.7289C5.61988 18.7289 1.82581 14.9384 1.82581 10.2793ZM10.2834 17.039C6.55275 17.039 3.51732 14.0064 3.51732 10.2793C3.51732 6.55211 6.55275 3.51952 10.2834 3.51952C14.014 3.51952 17.0495 6.55211 17.0495 10.2793C17.0495 14.0064 14.014 17.039 10.2834 17.039ZM13.6664 9.43429H11.1292V6.89939C11.1292 6.43212 10.7502 6.05442 10.2834 6.05442C9.81653 6.05442 9.43763 6.43212 9.43763 6.89939V10.2793C9.43763 10.7465 9.81653 11.1242 10.2834 11.1242H13.6664C14.1341 11.1242 14.5122 10.7465 14.5122 10.2793C14.5122 9.81199 14.1341 9.43429 13.6664 9.43429Z" fill="white"/>
</mask>
<g mask="url(#mask0)">
</g>
</svg>
