<svg width="28" height="28" viewBox="0 0 28 28" fill="none" xmlns="http://www.w3.org/2000/svg">
<path fill-rule="evenodd" clip-rule="evenodd" d="M10.4999 25.6667H15.1666C15.8118 25.6667 16.3333 25.1452 16.3333 24.5V17.2667H18.6666C19.1904 17.2667 19.6513 16.9167 19.7913 16.4115L20.9579 12.2127C21.0548 11.8615 20.9824 11.4847 20.7619 11.1942C20.5414 10.9048 20.1973 10.7333 19.8333 10.7333H16.3333V8.86666H19.8333C20.4784 8.86666 20.9999 8.344 20.9999 7.7V3.49999C20.9999 2.85483 20.4784 2.33333 19.8333 2.33333H16.3333C12.4728 2.33333 9.33325 5.21266 9.33325 8.75V10.7333H6.99992C6.35475 10.7333 5.83325 11.2548 5.83325 11.9V16.1C5.83325 16.7452 6.35475 17.2667 6.99992 17.2667H9.33325V24.5C9.33325 25.1452 9.85475 25.6667 10.4999 25.6667ZM13.9999 23.3333H11.6666V16.1C11.6666 15.4548 11.1451 14.9333 10.4999 14.9333H8.16658V13.0667H10.4999C11.1451 13.0667 11.6666 12.5452 11.6666 11.9V8.74999C11.6666 6.49833 13.7596 4.66666 16.3333 4.66666H18.6666V6.53333H16.3333C15.0464 6.53333 13.9999 7.52733 13.9999 8.74999V11.9C13.9999 12.5452 14.5214 13.0667 15.1666 13.0667H18.2991L17.7799 14.9333H15.1666C14.5214 14.9333 13.9999 15.4548 13.9999 16.1V23.3333Z" fill="white"/>
<mask id="mask0" mask-type="alpha" maskUnits="userSpaceOnUse" x="5" y="2" width="16" height="24">
<path fill-rule="evenodd" clip-rule="evenodd" d="M10.4999 25.6667H15.1666C15.8118 25.6667 16.3333 25.1452 16.3333 24.5V17.2667H18.6666C19.1904 17.2667 19.6513 16.9167 19.7913 16.4115L20.9579 12.2127C21.0548 11.8615 20.9824 11.4847 20.7619 11.1942C20.5414 10.9048 20.1973 10.7333 19.8333 10.7333H16.3333V8.86666H19.8333C20.4784 8.86666 20.9999 8.344 20.9999 7.7V3.49999C20.9999 2.85483 20.4784 2.33333 19.8333 2.33333H16.3333C12.4728 2.33333 9.33325 5.21266 9.33325 8.75V10.7333H6.99992C6.35475 10.7333 5.83325 11.2548 5.83325 11.9V16.1C5.83325 16.7452 6.35475 17.2667 6.99992 17.2667H9.33325V24.5C9.33325 25.1452 9.85475 25.6667 10.4999 25.6667ZM13.9999 23.3333H11.6666V16.1C11.6666 15.4548 11.1451 14.9333 10.4999 14.9333H8.16658V13.0667H10.4999C11.1451 13.0667 11.6666 12.5452 11.6666 11.9V8.74999C11.6666 6.49833 13.7596 4.66666 16.3333 4.66666H18.6666V6.53333H16.3333C15.0464 6.53333 13.9999 7.52733 13.9999 8.74999V11.9C13.9999 12.5452 14.5214 13.0667 15.1666 13.0667H18.2991L17.7799 14.9333H15.1666C14.5214 14.9333 13.9999 15.4548 13.9999 16.1V23.3333Z" fill="white"/>
</mask>
<g mask="url(#mask0)">
</g>
</svg>
