<svg width="24" height="24" viewBox="0 0 24 24" fill="none" xmlns="http://www.w3.org/2000/svg">
<path fill-rule="evenodd" clip-rule="evenodd" d="M11.9999 3C11.9999 2.447 12.4479 2 12.9999 2C17.9619 2 21.9999 6.037 21.9999 11C21.9999 11.553 21.5519 12 20.9999 12H12.9999C12.4479 12 11.9999 11.553 11.9999 11V3ZM20.8212 14.0576C20.2982 13.8716 19.7282 14.1446 19.5452 14.6666C18.4172 17.8566 15.3842 19.9996 12.0002 19.9996C7.58924 19.9996 4.00024 16.4116 4.00024 11.9996C4.00024 8.6156 6.14324 5.5826 9.33324 4.4546C9.85424 4.2716 10.1272 3.7006 9.94324 3.1796C9.75924 2.6596 9.18824 2.3856 8.66724 2.5706C4.67924 3.9796 2.00024 7.7686 2.00024 11.9996C2.00024 17.5136 6.48624 21.9996 12.0002 21.9996C16.2312 21.9996 20.0202 19.3216 21.4302 15.3326C21.6142 14.8126 21.3422 14.2416 20.8212 14.0576ZM13.9999 10V4.071C17.0609 4.511 19.4889 6.938 19.9289 10H13.9999Z" fill="#0D1C2E"/>
<mask id="mask0" mask-type="alpha" maskUnits="userSpaceOnUse" x="2" y="2" width="20" height="20">
<path fill-rule="evenodd" clip-rule="evenodd" d="M11.9999 3C11.9999 2.447 12.4479 2 12.9999 2C17.9619 2 21.9999 6.037 21.9999 11C21.9999 11.553 21.5519 12 20.9999 12H12.9999C12.4479 12 11.9999 11.553 11.9999 11V3ZM20.8212 14.0576C20.2982 13.8716 19.7282 14.1446 19.5452 14.6666C18.4172 17.8566 15.3842 19.9996 12.0002 19.9996C7.58924 19.9996 4.00024 16.4116 4.00024 11.9996C4.00024 8.6156 6.14324 5.5826 9.33324 4.4546C9.85424 4.2716 10.1272 3.7006 9.94324 3.1796C9.75924 2.6596 9.18824 2.3856 8.66724 2.5706C4.67924 3.9796 2.00024 7.7686 2.00024 11.9996C2.00024 17.5136 6.48624 21.9996 12.0002 21.9996C16.2312 21.9996 20.0202 19.3216 21.4302 15.3326C21.6142 14.8126 21.3422 14.2416 20.8212 14.0576ZM13.9999 10V4.071C17.0609 4.511 19.4889 6.938 19.9289 10H13.9999Z" fill="white"/>
</mask>
<g mask="url(#mask0)">
</g>
</svg>
