<svg width="28" height="28" viewBox="0 0 28 28" fill="none" xmlns="http://www.w3.org/2000/svg">
<path fill-rule="evenodd" clip-rule="evenodd" d="M20.9999 8.16667H22.5901C24.2864 8.16667 25.6666 9.562 25.6666 11.2782V19.0552C25.6666 20.7713 24.2864 22.1667 22.5901 22.1667H21.5833C21.5833 23.4535 20.5368 24.5 19.2499 24.5H8.74992C7.46309 24.5 6.41659 23.4535 6.41659 22.1667H5.40975C3.71342 22.1667 2.33325 20.7713 2.33325 19.0552V11.2782C2.33325 9.562 3.71342 8.16667 5.40975 8.16667H6.99992V5.83333C6.99992 4.5465 7.95892 3.5 9.13842 3.5H18.8614C20.0409 3.5 20.9999 4.5465 20.9999 5.83333V8.16667ZM9.34956 5.83333H18.6666V8.16667H9.34139L9.34956 5.83333ZM22.5901 19.8333C23.0007 19.8333 23.3333 19.4845 23.3333 19.0552V11.2782C23.3333 10.8488 23.0007 10.5 22.5901 10.5H20.9999H18.6666H9.33325H6.99992H5.40975C4.99909 10.5 4.66659 10.8488 4.66659 11.2782V19.0552C4.66659 19.4845 4.99909 19.8333 5.40975 19.8333H6.41658V17.5C6.41658 16.2132 7.46309 15.1667 8.74992 15.1667H19.2499C20.5368 15.1667 21.5833 16.2132 21.5833 17.5V19.8333H22.5901ZM8.74992 17.5V22.1667H19.2523L19.2499 17.5H8.74992Z" fill="white"/>
<mask id="mask0" mask-type="alpha" maskUnits="userSpaceOnUse" x="2" y="3" width="24" height="22">
<path fill-rule="evenodd" clip-rule="evenodd" d="M20.9999 8.16667H22.5901C24.2864 8.16667 25.6666 9.562 25.6666 11.2782V19.0552C25.6666 20.7713 24.2864 22.1667 22.5901 22.1667H21.5833C21.5833 23.4535 20.5368 24.5 19.2499 24.5H8.74992C7.46309 24.5 6.41659 23.4535 6.41659 22.1667H5.40975C3.71342 22.1667 2.33325 20.7713 2.33325 19.0552V11.2782C2.33325 9.562 3.71342 8.16667 5.40975 8.16667H6.99992V5.83333C6.99992 4.5465 7.95892 3.5 9.13842 3.5H18.8614C20.0409 3.5 20.9999 4.5465 20.9999 5.83333V8.16667ZM9.34956 5.83333H18.6666V8.16667H9.34139L9.34956 5.83333ZM22.5901 19.8333C23.0007 19.8333 23.3333 19.4845 23.3333 19.0552V11.2782C23.3333 10.8488 23.0007 10.5 22.5901 10.5H20.9999H18.6666H9.33325H6.99992H5.40975C4.99909 10.5 4.66659 10.8488 4.66659 11.2782V19.0552C4.66659 19.4845 4.99909 19.8333 5.40975 19.8333H6.41658V17.5C6.41658 16.2132 7.46309 15.1667 8.74992 15.1667H19.2499C20.5368 15.1667 21.5833 16.2132 21.5833 17.5V19.8333H22.5901ZM8.74992 17.5V22.1667H19.2523L19.2499 17.5H8.74992Z" fill="white"/>
</mask>
<g mask="url(#mask0)">
</g>
</svg>
