<svg width="28" height="28" viewBox="0 0 28 28" fill="none" xmlns="http://www.w3.org/2000/svg">
<path fill-rule="evenodd" clip-rule="evenodd" d="M9.83807 23.3301C9.8684 23.3325 9.90107 23.3336 9.9314 23.3336C17.9196 23.3336 22.7589 17.3055 22.9549 11.3496C23.3306 10.8701 24.0749 9.86914 24.4517 8.31631C24.6011 7.70614 24.3969 7.07964 23.9174 6.68181C23.4367 6.28047 22.7776 6.19414 22.1977 6.45431C21.7556 6.65264 21.3892 6.44964 21.2912 6.33764C20.3299 5.30514 19.0256 4.71247 17.6197 4.66931C16.2151 4.62731 14.8769 5.13597 13.8537 6.10781C12.8492 7.06214 12.2706 8.37231 12.2099 9.73147C10.1099 9.57631 8.31907 8.55547 6.52707 6.52431C6.10707 6.04714 5.47123 5.86047 4.85757 6.04714C4.25323 6.23031 3.8064 6.75414 3.72007 7.38181C3.42723 9.52614 3.30823 14.5895 7.8314 17.9716C7.09873 18.4488 6.08723 18.8058 4.86807 19.0065C4.1634 19.1208 3.61973 19.6761 3.51707 20.3843C3.41557 21.0843 3.77373 21.7586 4.40723 22.0666C6.0919 22.8821 7.9679 23.3173 9.83807 23.3301ZM9.93139 20.9968C9.95939 20.9968 9.98973 20.9979 10.0177 21.0003C16.6619 20.9571 20.6274 15.8809 20.6274 10.9739C20.6274 10.5283 20.8561 10.2401 21.0591 9.98461L21.0659 9.97597C21.2504 9.74244 21.5323 9.38559 21.7836 8.87394C20.8584 8.86461 20.0324 8.45394 19.5517 7.89161C19.0489 7.35378 18.3267 7.02478 17.5474 7.00144C16.7961 6.97111 16.0296 7.26044 15.4602 7.80061C14.7019 8.52044 14.3776 9.60661 14.6132 10.6333L14.9177 11.9621L13.5574 12.0578C10.0387 12.3214 7.60039 10.8153 5.92623 9.25661C5.93323 11.6133 6.71606 14.7574 10.2744 16.7851L11.3921 17.4221L10.6489 18.4733C9.87539 19.5688 8.71106 20.2676 7.52573 20.7144C8.30856 20.9011 9.11356 20.9968 9.91623 20.9968H9.93023H9.93139Z" fill="white"/>
<mask id="mask0" mask-type="alpha" maskUnits="userSpaceOnUse" x="3" y="4" width="22" height="20">
<path fill-rule="evenodd" clip-rule="evenodd" d="M9.83807 23.3301C9.8684 23.3325 9.90107 23.3336 9.9314 23.3336C17.9196 23.3336 22.7589 17.3055 22.9549 11.3496C23.3306 10.8701 24.0749 9.86914 24.4517 8.31631C24.6011 7.70614 24.3969 7.07964 23.9174 6.68181C23.4367 6.28047 22.7776 6.19414 22.1977 6.45431C21.7556 6.65264 21.3892 6.44964 21.2912 6.33764C20.3299 5.30514 19.0256 4.71247 17.6197 4.66931C16.2151 4.62731 14.8769 5.13597 13.8537 6.10781C12.8492 7.06214 12.2706 8.37231 12.2099 9.73147C10.1099 9.57631 8.31907 8.55547 6.52707 6.52431C6.10707 6.04714 5.47123 5.86047 4.85757 6.04714C4.25323 6.23031 3.8064 6.75414 3.72007 7.38181C3.42723 9.52614 3.30823 14.5895 7.8314 17.9716C7.09873 18.4488 6.08723 18.8058 4.86807 19.0065C4.1634 19.1208 3.61973 19.6761 3.51707 20.3843C3.41557 21.0843 3.77373 21.7586 4.40723 22.0666C6.0919 22.8821 7.9679 23.3173 9.83807 23.3301ZM9.93139 20.9968C9.95939 20.9968 9.98973 20.9979 10.0177 21.0003C16.6619 20.9571 20.6274 15.8809 20.6274 10.9739C20.6274 10.5283 20.8561 10.2401 21.0591 9.98461L21.0659 9.97597C21.2504 9.74244 21.5323 9.38559 21.7836 8.87394C20.8584 8.86461 20.0324 8.45394 19.5517 7.89161C19.0489 7.35378 18.3267 7.02478 17.5474 7.00144C16.7961 6.97111 16.0296 7.26044 15.4602 7.80061C14.7019 8.52044 14.3776 9.60661 14.6132 10.6333L14.9177 11.9621L13.5574 12.0578C10.0387 12.3214 7.60039 10.8153 5.92623 9.25661C5.93323 11.6133 6.71606 14.7574 10.2744 16.7851L11.3921 17.4221L10.6489 18.4733C9.87539 19.5688 8.71106 20.2676 7.52573 20.7144C8.30856 20.9011 9.11356 20.9968 9.91623 20.9968H9.93023H9.93139Z" fill="white"/>
</mask>
<g mask="url(#mask0)">
</g>
</svg>
